<svg height="128" viewBox="0 0 128 128" width="128" xmlns="http://www.w3.org/2000/svg"><path d="m70.328125 56.984375h-28.65625v6.453125c0 1.2081229-.9793771 2.1875-2.1875 2.1875s-2.1875-.9793771-2.1875-2.1875v-17.5c0-1.2081229.9793771-2.1875 2.1875-2.1875s2.1875.9793771 2.1875 2.1875v6.671875h28.65625v-6.671875c0-1.2081229.9793771-2.1875 2.1875-2.1875s2.1875.9793771 2.1875 2.1875v17.5c0 1.2081229-.9793771 2.1875-2.1875 2.1875s-2.1875-.9793771-2.1875-2.1875zm-14.328125-56.984375c30.94 0 56 25.06 56 56 0 24.71-16.03 45.71-38.15 53.13-2.8.56-3.85-1.19-3.85-2.66 0-1.89.07-7.91.07-15.4 0-5.25-1.75-8.61-3.78-10.36 12.46-1.4 25.55-6.16 25.55-27.65 0-6.16-2.17-11.13-5.74-15.05.56-1.4 2.52-7.14-.56-14.84 0 0-4.69-1.54-15.4 5.74-4.48-1.26-9.24-1.89-14-1.89s-9.52.63-14 1.89c-10.71-7.21-15.4-5.74-15.4-5.74-3.08 7.7-1.12 13.44-.56 14.84-3.57 3.92-5.74 8.96-5.74 15.05 0 21.42 13.02 26.25 25.48 27.65-1.61 1.4-3.08 3.85-3.57 7.49-3.22 1.47-11.27 3.85-16.31-4.62-1.05-1.68-4.2-5.81-8.61-5.74-4.69.07-1.89 2.66.07 3.71 2.38 1.33 5.11 6.3 5.74 7.91 1.12 3.15 4.76 9.17 18.83 6.58 0 4.69.07 9.1.07 10.43 0 1.47-1.05 3.15-3.85 2.66-22.26-7.42-38.29-28.35-38.29-53.13 0-30.94 25.06-56 56-56z" fill-rule="evenodd" transform="translate(8 8)"/></svg>