<svg height="24" width="23" xmlns="http://www.w3.org/2000/svg"><path d="m21.2 16.8c.4-.1.8 0 1 .4.2.3.2.8 0 1.1-.5.8-1.1 1.6-1.7 2.2-2.3 2.3-5.3 3.5-8.5 3.5s-6.2-1.2-8.5-3.5-3.5-5.3-3.5-8.5 1.2-6.2 3.5-8.5c1.6-1.6 3.7-2.7 5.9-3.2.4-.1.8.1 1 .4s.2.8 0 1.1c-2.4 4-1.8 9 1.5 12.3 1.9 1.9 4.4 2.9 7.1 2.9.7 0 1.5-.1 2.2-.2zm1.4-7.6c.3.2.4.5.4.8 0 .6-.4 1-1 1-.2 0-.5-.1-.7-.3-.5-.5-1.4-.8-2.3-.8s-1.8.3-2.3.8c-.4.4-1 .4-1.4 0-.2-.2-.3-.4-.3-.7s.1-.5.3-.7c.5-.5.8-1.4.8-2.3s-.3-1.8-.8-2.3c-.2-.2-.3-.4-.3-.7s.1-.5.3-.7c.4-.4 1-.4 1.4 0 .5.5 1.4.8 2.3.8s1.8-.3 2.3-.8c.4-.4 1-.4 1.4 0 .2.2.3.4.3.7s-.1.5-.3.7c-.5.5-.8 1.4-.8 2.3s.3 1.7.7 2.2z"/></svg>