<svg width="24" height="24" xmlns="http://www.w3.org/2000/svg"><path d="M22 10h-1.231a8.943 8.943 0 0 0-1.156-2.785l.872-.872a2 2 0 0 0-2.828-2.828l-.872.872A8.943 8.943 0 0 0 14 3.231V2a2 2 0 1 0-4 0v1.231a8.943 8.943 0 0 0-2.785 1.156l-.872-.872a2 2 0 0 0-2.828 2.828l.872.872A8.943 8.943 0 0 0 3.231 10H2a2 2 0 1 0 0 4h1.231a8.943 8.943 0 0 0 1.156 2.785l-.872.872a2 2 0 0 0 2.828 2.828l.872-.872c.856.54 1.798.931 2.785 1.156V22a2 2 0 1 0 4 0v-1.231a8.943 8.943 0 0 0 2.785-1.156l.872.872a2 2 0 0 0 2.828-2.828l-.872-.872A8.943 8.943 0 0 0 20.769 14H22a2 2 0 1 0 0-4zm-10 6a4 4 0 1 1 0-8 4 4 0 0 1 0 8z"/></svg>